<svg xmlns="http://www.w3.org/2000/svg" version="1.1" xmlns:xlink="http://www.w3.org/1999/xlink" xmlns:svgjs="http://svgjs.com/svgjs" width="103" height="103"><svg width="103" height="103" viewBox="0 0 103 103" fill="none" xmlns="http://www.w3.org/2000/svg">
<rect x="0.00851822" width="102.983" height="102.983" rx="51.4915" fill="black"></rect>
<path d="M63.1595 37.5955C63.1495 37.5955 63.1445 37.5955 63.1395 37.5955C62.9946 37.6271 62.8431 37.6554 62.6932 37.6821C62.6683 37.6821 62.6432 37.6838 62.6166 37.6854C62.5866 37.6854 62.5617 37.6887 62.53 37.6788C60.8248 37.9152 59.5375 38.0002 59.2394 38.0185C59.2394 38.0185 59.2344 38.0185 59.2344 38.0235H59.2294C59.0196 38.0684 58.8081 38.1084 58.5866 38.15C61.7706 39.354 64.4867 39.5072 66.6716 38.5863C68.1853 37.9485 69.1845 36.8861 69.7923 35.9968C67.6774 36.7928 65.1945 37.2874 63.1578 37.5905V37.5955H63.1595Z" fill="white"></path>
<path d="M68.0055 29.4323C64.9447 30.2366 63.834 32.1517 63.6058 32.603C63.5975 33.1908 63.5575 33.8453 63.3793 34.4914C63.2011 35.1426 62.898 35.7837 62.3768 36.3549C62.5783 36.3299 62.7848 36.2999 62.9897 36.2649H62.9946C62.9946 36.2649 63.0046 36.2649 63.0146 36.2649C66.2403 35.5189 67.9472 34.9111 69.5242 33.006C71.2711 30.8977 70.7948 30.5846 73.003 29.6721C71.8123 29.1159 69.754 28.971 68.0038 29.4323H68.0055Z" fill="white"></path>
<path d="M61.4359 28.0351C61.9938 28.2566 62.4518 28.3165 63.3227 28.0034C63.5758 27.9102 63.8589 27.9785 64.0338 28.1783C64.2203 28.3765 64.2636 28.6646 64.1487 28.9077C64.1437 28.9127 63.9522 29.3573 63.794 30.2099C64.6183 29.4372 65.8573 28.6263 67.6674 28.1533C68.7582 27.8652 69.729 27.7586 70.58 27.7603C71.7374 26.3048 72.147 24.0934 72.2836 23.1258C71.6341 22.8927 70.162 22.4697 67.2694 22.1067C65.008 21.8219 64.3185 22.5563 63.8672 23.742C63.759 24.0401 63.6624 24.3582 63.5575 24.7029C63.386 25.2724 63.2111 25.8636 62.928 26.4131C62.52 27.2125 61.9805 27.717 61.4343 28.0368L61.4359 28.0351Z" fill="white"></path>
<path d="M54.2153 23.712C54.2202 23.702 54.2186 23.687 54.2236 23.6753C54.2319 23.6504 55.1961 21.1757 55.2011 18.881C54.6749 19.4322 54.0038 20.2532 53.4359 21.3073C52.162 23.6587 51.8606 26.2199 52.5283 28.9277C52.8631 26.8511 53.4659 25.1325 54.2153 23.712Z" fill="white"></path>
<path d="M57.296 26.976C58.087 27.0059 58.7232 27.0925 59.2511 27.2191C59.2561 27.2191 59.271 27.2224 59.286 27.2274C59.5408 27.2507 60.9663 27.3423 61.7457 25.8069C61.9738 25.3606 62.1353 24.8327 62.2885 24.3182C62.3718 24.0417 62.4551 23.7636 62.5483 23.4805H62.5533C62.3335 22.8727 61.8623 21.3356 62.0721 19.8469C62.1653 19.2207 62.2569 18.6995 62.3335 18.2915C61.4959 18.5779 60.2653 19.1108 58.993 20.0567C57.2161 21.3739 55.0479 23.762 54.0787 27.8669C54.898 27.3024 55.9438 26.9343 57.2927 26.9743L57.296 26.976Z" fill="white"></path>
<path d="M51.5025 0C23.1077 0 0.00851822 23.0992 0.00851822 51.489C0.00851822 74.5215 15.2142 94.0753 36.1103 100.633C38.4117 101.356 40.7864 101.924 43.2111 102.312C45.9138 102.756 48.6798 102.983 51.5025 102.983C79.8923 102.983 102.991 79.8838 102.991 51.489C102.991 23.0942 79.8923 0 51.5025 0ZM62.0954 99.0812C68.3219 95.9971 72.9314 90.3967 74.4185 83.6623C76.3352 74.9662 72.2953 67.0527 62.7182 61.4923C58.8014 59.2176 54.5583 57.499 50.4617 55.5356C44.818 52.8245 38.8796 50.5981 33.6023 47.3125C25.2359 42.1051 22.8829 32.5447 27.2643 24.2799C29.5457 19.9768 32.7897 16.5679 37.1711 14.3265C45.9821 9.82186 55.1895 9.55206 64.605 12.1799C75.1895 15.1374 81.9256 21.1941 84.7949 32.1034C88.2037 45.0826 77.7307 56.1201 65.9538 55.6305C59.8422 55.3774 53.5192 53.2009 51.2694 47.2558C49.2394 41.8953 52.2835 38.3649 54.0121 36.9344C54.0937 36.9377 54.1769 36.9427 54.2602 36.9493C54.8131 36.9893 55.336 37.011 55.8322 37.0126C55.8622 37.0126 55.8872 37.0093 55.9188 37.0126C55.9238 37.0126 55.9288 37.0126 55.9288 37.0126C55.9288 37.0126 55.9322 37.0126 55.9388 37.0126C57.1178 37.0126 58.132 36.9211 58.983 36.7196C59.9538 36.4931 60.7015 36.1334 61.2261 35.6438C62.1537 34.7862 62.2835 33.5705 62.2852 32.4864C62.2852 32.4664 62.2835 32.4464 62.2869 32.4198C62.2852 31.1741 62.4234 30.2166 62.5783 29.5305C61.7057 29.6171 61.0912 29.3407 60.4451 29.0526C60.0521 28.8727 59.6074 28.6762 59.0029 28.5214C58.9879 28.5164 58.973 28.513 58.9563 28.513C58.495 28.3981 57.9455 28.3165 57.2611 28.2982C57.1245 28.2982 56.9979 28.2949 56.8714 28.3015C55.291 28.3748 54.3102 29.1891 53.6524 30.1666C53.6291 30.2083 53.6008 30.2499 53.5725 30.2866C53.1378 30.9544 52.843 31.682 52.5916 32.2915C52.5416 32.4148 52.4967 32.5347 52.4451 32.6429C52.1536 33.3457 51.7856 33.8836 51.4476 34.3549C50.7398 35.0426 50.0254 35.7504 49.6574 36.1817C45.5375 40.996 45.8555 47.6405 50.6415 52.3266C56.7531 58.315 64.7798 59.9753 72.6417 57.8237C80.3852 55.7088 86.5934 50.4848 87.9822 42.2133C89.5892 32.9377 86.6017 22.7528 79.0913 16.4147C69.4226 8.25483 55.5908 4.81268 44.1653 7.28563C35.3659 9.18738 26.9828 13.3306 21.4624 20.7794C14.8029 29.7687 15.6556 40.0651 23.5457 47.9469C26.5099 50.9078 30.0237 53.4557 33.634 55.6022C37.6107 57.9719 42.0487 59.5506 46.1802 61.6755C51.1178 64.2118 56.2303 66.5498 60.7415 69.7172C67.381 74.3683 69.4659 81.8621 67.0396 89.316C66.9763 89.5108 66.9131 89.7006 66.8414 89.8921C65.2861 94.0404 61.8539 97.1278 57.8023 98.7797C55.8156 99.5891 53.6107 100.15 51.4592 100.239C50.7148 100.269 43.2111 99.9804 43.2111 99.5375V63.3009C41.2227 62.4033 39.226 61.5074 36.6548 60.3433C36.6548 68.5632 36.8613 76.2268 36.5949 83.8754C36.4367 88.5316 37.171 93.301 36.6115 97.9138C16.8296 91.5557 2.52143 72.8779 2.75624 50.9577C3.04267 24.3931 24.7963 2.81766 51.361 2.74272C78.3069 2.66279 100.254 24.5596 100.254 51.489C100.254 74.7347 83.9023 94.2302 62.097 99.0812H62.0954Z" fill="white"></path>
<path d="M36.778 46.3582C38.7264 47.3657 40.6715 48.3749 43.0612 49.6122C43.8155 43.6588 42.0653 37.8686 46.2285 32.9144H36.778V46.3566V46.3582Z" fill="white"></path>
</svg><style>@media (prefers-color-scheme: light) { :root { filter: none; } }
</style></svg>