<svg width="65" height="45" viewBox="0 0 65 45" fill="none" xmlns="http://www.w3.org/2000/svg">
<mask id="mask0_6373_12475" style="mask-type:alpha" maskUnits="userSpaceOnUse" x="0" y="0" width="65" height="45">
<rect width="65" height="44.8276" fill="black"/>
</mask>
<g mask="url(#mask0_6373_12475)">
<path d="M17.5008 18.7998L34.1984 2.38311C35.479 1.12404 37.5556 1.12379 38.8365 2.38255L55.5423 18.7993C56.8232 20.0581 56.8234 22.0992 55.5428 23.3583L38.8452 39.775C37.5646 41.034 35.4881 41.0343 34.2072 39.7755L17.5014 23.3587C16.2205 22.1 16.2202 20.0589 17.5008 18.7998Z" fill="url(#paint0_linear_6373_12475)"/>
</g>
<path d="M16.9885 8.86136C18.569 7.3179 21.1015 7.34794 22.645 8.92846L32.7597 19.2861C33.5314 20.0763 33.5164 21.3426 32.7262 22.1143L22.3686 32.229C20.788 33.7725 18.2556 33.7425 16.7121 32.1619L7.99468 23.2352C6.45123 21.6547 6.48127 19.1222 8.06179 17.5788L16.9885 8.86136Z" fill="url(#paint1_linear_6373_12475)"/>
<path d="M25.0709 11.4126L32.7597 19.286C33.5314 20.0763 33.5164 21.3425 32.7262 22.1143L24.4378 30.2083L16.6272 22.6472C15.8244 21.8701 15.814 20.586 16.604 19.796L19.9333 16.4667L25.0709 11.4126Z" fill="url(#paint2_linear_6373_12475)"/>
<defs>
<linearGradient id="paint0_linear_6373_12475" x1="-163.887" y1="232.35" x2="-163.882" y2="208.598" gradientUnits="userSpaceOnUse">
<stop stop-color="#4ED0F9"/>
<stop offset="1" stop-color="#63D7F8"/>
</linearGradient>
<linearGradient id="paint1_linear_6373_12475" x1="19.0667" y1="8.66668" x2="8.66666" y2="20.8" gradientUnits="userSpaceOnUse">
<stop stop-color="#E13092"/>
<stop offset="1" stop-color="#8029B4"/>
</linearGradient>
<linearGradient id="paint2_linear_6373_12475" x1="18.6084" y1="20.8244" x2="32.0611" y2="21.2793" gradientUnits="userSpaceOnUse">
<stop stop-color="#8E14A9"/>
<stop offset="1" stop-color="#3A0687"/>
</linearGradient>
</defs>
</svg>
